#!OML:ASF E:\acrobat2\Project_11_07_03\Capture day 1\Session 1\Acrobat.ASF
:FULLY-SPECIFIED
:DEGREES
259
root 10.8211 21.4468 16.3367 6.436 -0.241064 6.87073
lowerback -9.07397 -1.18383 -6.23494
upperback -1.63502 -0.888827 -2.22659
thorax 3.44708 -0.498672 1.08228
lowerneck 4.65453 -4.4103 -3.95877
upperneck -4.06352 -5.78792 8.03952
head -1.74356 -3.03251 3.47324
rclavicle 4.04092e-015 -9.34288e-015
rhumerus -37.2793 1.37092 -90.314
rradius 25.3182
rwrist 8.24873
rhand -6.3247 -41.7266
rfingers 7.12502
rthumb 19.5202 -70.7667
lclavicle 4.04092e-015 -9.34288e-015
lhumerus -31.4819 -2.26263 89.054
lradius 20.9329
lwrist 2.3458
lhand 1.49895 -13.3967
lfingers 7.12502
lthumb 27.0253 14.6898
rfemur 5.68048 7.92209 8.17972
rtibia -4.43715
rfoot -17.3854 -15.8046
rtoes 16.2682
lfemur 1.86979 -1.55155 -23.2095
ltibia -0.493081
lfoot -11.4404 -2.12739
ltoes 11.3652
260
root 10.82 21.4474 16.3366 6.43396 -0.245029 6.83394
lowerback -9.09784 -1.10415 -6.13285
upperback -1.63006 -0.789098 -2.26626
thorax 3.45724 -0.44832 0.995849
lowerneck 4.41855 -3.98807 -3.58499
upperneck -4.10035 -5.20643 7.64354
head -1.7692 -2.73463 3.2508
rclavicle 3.55483e-015 -3.62782e-014
rhumerus -37.323 1.13425 -90.3117
rradius 25.2867
rwrist 8.3747
rhand -6.36111 -41.6968
rfingers 7.12502
rthumb 19.4852 -70.7404
lclavicle 3.55483e-015 -3.62782e-014
lhumerus -31.4327 -2.62539 89.1511
lradius 20.9112
lwrist 2.46342
lhand 1.36983 -13.5123
lfingers 7.12502
lthumb 26.9018 14.5933
rfemur 5.68558 7.95479 8.23813
rtibia -4.44302
rfoot -17.39 -15.8244
rtoes 16.426
lfemur 1.86649 -1.54285 -23.1592
ltibia -0.488437
lfoot -11.4258 -2.08238
ltoes 11.1868
261
root 10.8193 21.4482 16.3367 6.43086 -0.236214 6.80248
lowerback -9.13582 -1.02652 -6.02791
upperback -1.61433 -0.690337 -2.31366
thorax 3.48693 -0.398982 0.899364
lowerneck 4.14787 -3.61582 -3.22872
upperneck -4.0753 -4.69782 7.25062
head -1.75847 -2.47206 3.03224
rclavicle 2.68328e-014 -2.66371e-014
rhumerus -37.3592 0.911929 -90.3239
rradius 25.2544
rwrist 8.47152
rhand -6.39067 -41.6737
rfingers 7.12502
rthumb 19.4568 -70.7202
lclavicle 2.68328e-014 -2.66371e-014
lhumerus -31.3529 -3.00047 89.2478
lradius 20.857
lwrist 2.57059
lhand 1.20741 -13.6667
lfingers 7.12502
lthumb 26.7463 14.4627
rfemur 5.6956 7.94386 8.28262
rtibia -4.44892
rfoot -17.3732 -15.8231
rtoes 16.5373
lfemur 1.86789 -1.53222 -23.1212
ltibia -0.489137
lfoot -11.4027 -2.04554
ltoes 10.9703
262
root 10.819 21.4491 16.337 6.42671 -0.222043 6.79465
lowerback -9.18928 -0.948684 -5.93967
upperback -1.58822 -0.587453 -2.37193
thorax 3.53639 -0.348294 0.801146
lowerneck 3.83818 -3.29344 -2.90894
upperneck -3.98118 -4.26215 6.88077
head -1.70902 -2.24487 2.8284
rclavicle 1.14876e-014 4.07509e-015
rhumerus -37.3855 0.712664 -90.3475
rradius 25.2236
rwrist 8.52369
rhand -6.38685 -41.6687
rfingers 7.12502
rthumb 19.4604 -70.7148
lclavicle 1.14876e-014 4.07509e-015
lhumerus -31.2468 -3.37584 89.3425
lradius 20.7804
lwrist 2.64466
lhand 1.08505 -13.8209
lfingers 7.12502
lthumb 26.6293 14.3264
rfemur 5.70774 7.8893 8.28821
rtibia -4.45209
rfoot -17.3405 -15.7918
rtoes 16.5866
lfemur 1.87514 -1.52893 -23.1187
ltibia -0.496835
lfoot -11.3803 -2.01358
ltoes 10.7307
263
root 10.8189 21.4497 16.3374 6.42298 -0.206497 6.80849
lowerback -9.24903 -0.87012 -5.86977
upperback -1.5585 -0.480859 -2.43717
thorax 3.59352 -0.2961 0.70637
lowerneck 3.50474 -3.01582 -2.62704
upperneck -3.83098 -3.8915 6.53732
head -1.62986 -2.04954 2.64178
rclavicle 2.70068e-015 2.20651e-014
rhumerus -37.4069 0.536196 -90.3779
rradius 25.1956
rwrist 8.53699
rhand -6.35966 -41.6808
rfingers 7.12502
rthumb 19.4866 -70.7243
lclavicle 2.70068e-015 2.20651e-014
lhumerus -31.1257 -3.73547 89.4342
lradius 20.6893
lwrist 2.67854
lhand 1.0259 -13.9364
lfingers 7.12502
lthumb 26.5726 14.2194
rfemur 5.71759 7.80683 8.25934
rtibia -4.44923
rfoot -17.3019 -15.7354
rtoes 16.6123
lfemur 1.88504 -1.53987 -23.1475
ltibia -0.506905
lfoot -11.3681 -1.98717
ltoes 10.4998
264
root 10.819 21.4502 16.3376 6.42091 -0.189495 6.83808
lowerback -9.30371 -0.791264 -5.81466
upperback -1.5328 -0.372903 -2.50668
thorax 3.64411 -0.24312 0.61583
lowerneck 3.17443 -2.78047 -2.3673
upperneck -3.65393 -3.58066 6.20471
head -1.53731 -1.88412 2.46576
rclavicle -8.72789e-015 2.00773e-014
rhumerus -37.4291 0.366782 -90.409
rradius 25.1671
rwrist 8.54109
rhand -6.32449 -41.7078
rfingers 7.12502
rthumb 19.5204 -70.7479
lclavicle -8.72789e-015 2.00773e-014
lhumerus -31.0057 -4.06097 89.5163
lradius 20.6012
lwrist 2.66899
lhand 1.0243 -13.9942
lfingers 7.12502
lthumb 26.5711 14.1619
rfemur 5.72357 7.70981 8.2065
rtibia -4.44051
rfoot -17.267 -15.6612
rtoes 16.6475
lfemur 1.89258 -1.57018 -23.198
ltibia -0.514499
lfoot -11.3696 -1.96634
ltoes 10.3589
265
root 10.8192 21.4506 16.3374 6.42011 -0.173094 6.8808
lowerback -9.34549 -0.715653 -5.77417
upperback -1.51617 -0.269334 -2.5768
thorax 3.67877 -0.191964 0.532602
lowerneck 2.86141 -2.57774 -2.13428
upperneck -3.46343 -3.3158 5.88699
head -1.43964 -1.7421 2.30274
rclavicle -2.07435e-014 1.13307e-014
rhumerus -37.457 0.211695 -90.4405
rradius 25.1355
rwrist 8.55478
rhand -6.29474 -41.7501
rfingers 7.12502
rthumb 19.549 -70.7873
lclavicle -2.07435e-014 1.13307e-014
lhumerus -30.903 -4.33137 89.5842
lradius 20.5383
lwrist 2.61505
lhand 1.09008 -13.9809
lfingers 7.12502
lthumb 26.6341 14.1656
rfemur 5.72325 7.59829 8.13319
rtibia -4.42277
rfoot -17.2361 -15.5696
rtoes 16.6517
lfemur 1.89564 -1.60514 -23.265
ltibia -0.516732
lfoot -11.3765 -1.9499
ltoes 10.2613
266
root 10.8196 21.4508 16.3368 6.41999 -0.156127 6.92292
lowerback -9.37178 -0.647757 -5.73843
upperback -1.51016 -0.177664 -2.64018
thorax 3.69473 -0.146216 0.457866
lowerneck 2.56873 -2.39095 -1.95098
upperneck -3.25859 -3.0742 5.61249
head -1.3381 -1.61237 2.16546
rclavicle 2.10246e-014 -3.22031e-014
rhumerus -37.4935 0.0873879 -90.4747
rradius 25.1022
rwrist 8.57713
rhand -6.29636 -41.7993
rfingers 7.12502
rthumb 19.5474 -70.8366
lclavicle 2.10246e-014 -3.22031e-014
lhumerus -30.8233 -4.54196 89.6403
lradius 20.504
lwrist 2.5347
lhand 1.16278 -13.9284
lfingers 7.12502
lthumb 26.7036 14.2075
rfemur 5.7146 7.46921 8.05623
rtibia -4.395
rfoot -17.1999 -15.4651
rtoes 16.5919
lfemur 1.8954 -1.62856 -23.3295
ltibia -0.514627
lfoot -11.3779 -1.9425
ltoes 10.157
267
root 10.8197 21.4509 16.3356 6.419 -0.135255 6.96356
lowerback -9.38152 -0.589039 -5.7122
upperback -1.51307 -0.0993924 -2.69582
thorax 3.69311 -0.10675 0.395044
lowerneck 2.28599 -2.21309 -1.82923
upperneck -3.02531 -2.84628 5.40078
head -1.22696 -1.48998 2.06133
rclavicle 1.04269e-014 -1.70955e-014
rhumerus -37.535 -0.0185547 -90.5066
rradius 25.0633
rwrist 8.62087
rhand -6.32799 -41.8315
rfingers 7.12502
rthumb 19.517 -70.872
lclavicle 1.04269e-014 -1.70955e-014
lhumerus -30.7595 -4.68143 89.6804
lradius 20.4926
lwrist 2.41874
lhand 1.22766 -13.8458
lfingers 7.12502
lthumb 26.7657 14.2806
rfemur 5.70143 7.33592 7.98122
rtibia -4.36221
rfoot -17.1613 -15.3633
rtoes 16.4886
lfemur 1.8922 -1.62698 -23.3864
ltibia -0.508295
lfoot -11.3647 -1.9508
ltoes 10.0089
268
root 10.8194 21.4509 16.3338 6.41811 -0.110944 6.99771
lowerback -9.3796 -0.537765 -5.69439
upperback -1.52288 -0.0318719 -2.74245
thorax 3.67852 -0.0723863 0.345095
lowerneck 2.00479 -2.04626 -1.75631
upperneck -2.76032 -2.63443 5.24051
head -1.10442 -1.37583 1.98385
rclavicle 1.97667e-014 -5.96354e-016
rhumerus -37.5781 -0.117536 -90.5316
rradius 25.0147
rwrist 8.69096
rhand -6.3903 -41.8194
rfingers 7.12502
rthumb 19.4571 -70.8659
lclavicle 1.97667e-014 -5.96354e-016
lhumerus -30.6998 -4.73202 89.6972
lradius 20.4912
lwrist 2.24261
lhand 1.29191 -13.7443
lfingers 7.12502
lthumb 26.8272 14.3727
rfemur 5.68353 7.22259 7.92049
rtibia -4.32522
rfoot -17.1306 -15.2844
rtoes 16.3503
lfemur 1.88221 -1.59387 -23.4267
ltibia -0.493132
lfoot -11.3349 -1.97294
ltoes 9.78696
269
root 10.8183 21.4506 16.3317 6.41588 -0.0853301 7.01256
lowerback -9.36857 -0.49013 -5.67211
upperback -1.53889 0.0288124 -2.77798
thorax 3.65283 -0.0410949 0.303424
lowerneck 1.74143 -1.8997 -1.71389
upperneck -2.49119 -2.44986 5.10823
head -0.982349 -1.27584 1.92274
rclavicle 2.02698e-014 -4.77083e-015
rhumerus -37.6253 -0.213796 -90.5493
rradius 24.9558
rwrist 8.77477
rhand -6.47478 -41.7586
rfingers 7.12502
rthumb 19.3759 -70.8132
lclavicle 2.02698e-014 -4.77083e-015
lhumerus -30.6387 -4.71535 89.696
lradius 20.4833
lwrist 2.02506
lhand 1.36726 -13.6451
lfingers 7.12502
lthumb 26.8993 14.4608
rfemur 5.66562 7.15288 7.89575
rtibia -4.28836
rfoot -17.1165 -15.2444
rtoes 16.2258
lfemur 1.86981 -1.55007 -23.4344
ltibia -0.47508
lfoot -11.2955 -1.99991
ltoes 9.62107
